<svg width="40" height="36" viewBox="0 0 40 36" fill="none" xmlns="http://www.w3.org/2000/svg">
<path d="M35.5556 5.77767C36.1667 5.77767 36.6667 6.27767 36.6667 6.88878V29.111C36.6667 29.7221 36.1667 30.2221 35.5556 30.2221H4.44444C3.83333 30.2221 3.33333 29.7221 3.33333 29.111V6.88878C3.33333 6.27767 3.83333 5.77767 4.44444 5.77767H35.5556ZM4.44444 2.44434C1.99306 2.44434 0 4.43739 0 6.88878V29.111C0 31.5624 1.99306 33.5554 4.44444 33.5554H35.5556C38.0069 33.5554 40 31.5624 40 29.111V6.88878C40 4.43739 38.0069 2.44434 35.5556 2.44434H4.44444ZM14.4444 17.9999C15.6232 17.9999 16.7536 17.5316 17.5871 16.6981C18.4206 15.8646 18.8889 14.7342 18.8889 13.5554C18.8889 12.3767 18.4206 11.2462 17.5871 10.4128C16.7536 9.57926 15.6232 9.111 14.4444 9.111C13.2657 9.111 12.1352 9.57926 11.3017 10.4128C10.4683 11.2462 10 12.3767 10 13.5554C10 14.7342 10.4683 15.8646 11.3017 16.6981C12.1352 17.5316 13.2657 17.9999 14.4444 17.9999ZM12.2222 20.2221C9.15278 20.2221 6.66667 22.7082 6.66667 25.7777C6.66667 26.3888 7.16667 26.8888 7.77778 26.8888H21.1111C21.7222 26.8888 22.2222 26.3888 22.2222 25.7777C22.2222 22.7082 19.7361 20.2221 16.6667 20.2221H12.2222ZM26.1111 10.2221C25.1875 10.2221 24.4444 10.9652 24.4444 11.8888C24.4444 12.8124 25.1875 13.5554 26.1111 13.5554H31.6667C32.5903 13.5554 33.3333 12.8124 33.3333 11.8888C33.3333 10.9652 32.5903 10.2221 31.6667 10.2221H26.1111ZM26.1111 16.8888C25.1875 16.8888 24.4444 17.6318 24.4444 18.5554C24.4444 19.4791 25.1875 20.2221 26.1111 20.2221H31.6667C32.5903 20.2221 33.3333 19.4791 33.3333 18.5554C33.3333 17.6318 32.5903 16.8888 31.6667 16.8888H26.1111Z" fill="white"/>
</svg>
