<svg width="29" height="22" viewBox="0 0 29 22" fill="none" xmlns="http://www.w3.org/2000/svg">
<path d="M3.125 0.5C1.67578 0.5 0.5 1.67578 0.5 3.125C0.5 3.95078 0.888281 4.72734 1.55 5.225L13.45 14.15C14.0734 14.6148 14.9266 14.6148 15.55 14.15L27.45 5.225C28.1117 4.72734 28.5 3.95078 28.5 3.125C28.5 1.67578 27.3242 0.5 25.875 0.5H3.125ZM0.5 6.625V18C0.5 19.9305 2.06953 21.5 4 21.5H25C26.9305 21.5 28.5 19.9305 28.5 18V6.625L16.6 15.55C15.3531 16.4852 13.6469 16.4852 12.4 15.55L0.5 6.625Z" fill="#6361F1"/>
</svg>
