<svg width="29" height="28" viewBox="0 0 29 28" fill="none" xmlns="http://www.w3.org/2000/svg">
<g clip-path="url(#clip0_1_55)">
<path d="M9.86532 21.7328C9.86532 21.8422 9.73548 21.9297 9.57177 21.9297C9.38548 21.9461 9.25564 21.8586 9.25564 21.7328C9.25564 21.6234 9.38548 21.5359 9.54919 21.5359C9.71855 21.5195 9.86532 21.607 9.86532 21.7328ZM8.10968 21.4867C8.07016 21.5961 8.18306 21.7219 8.35242 21.7547C8.49919 21.8094 8.66855 21.7547 8.70242 21.6453C8.73629 21.5359 8.62903 21.4102 8.45968 21.3609C8.3129 21.3227 8.14919 21.3773 8.10968 21.4867ZM10.6048 21.3938C10.4411 21.432 10.3282 21.5359 10.3452 21.6617C10.3621 21.7711 10.5089 21.8422 10.6782 21.8039C10.8419 21.7656 10.9548 21.6617 10.9379 21.5523C10.921 21.4484 10.7685 21.3773 10.6048 21.3938ZM14.3194 0.4375C6.48952 0.4375 0.5 6.19609 0.5 13.7812C0.5 19.8461 4.44032 25.0359 10.0685 26.8625C10.7911 26.9883 11.0452 26.5562 11.0452 26.2008C11.0452 25.8617 11.0282 23.9914 11.0282 22.843C11.0282 22.843 7.07661 23.6633 6.24677 21.2133C6.24677 21.2133 5.60323 19.6219 4.67742 19.2117C4.67742 19.2117 3.38468 18.3531 4.76774 18.3695C4.76774 18.3695 6.17339 18.4789 6.94677 19.7805C8.18306 21.8914 10.2548 21.2844 11.0621 20.9234C11.1919 20.0484 11.5589 19.4414 11.9653 19.0805C8.80968 18.7414 5.62581 18.2984 5.62581 13.0375C5.62581 11.5336 6.05484 10.7789 6.95806 9.81641C6.81129 9.46094 6.33145 7.99531 7.10484 6.10313C8.28468 5.74766 11 7.57969 11 7.57969C12.129 7.27344 13.3427 7.11484 14.5452 7.11484C15.7476 7.11484 16.9613 7.27344 18.0903 7.57969C18.0903 7.57969 20.8056 5.74219 21.9855 6.10313C22.7589 8.00078 22.279 9.46094 22.1323 9.81641C23.0355 10.7844 23.5887 11.5391 23.5887 13.0375C23.5887 18.3148 20.2637 18.7359 17.1081 19.0805C17.6274 19.5125 18.0677 20.3328 18.0677 21.618C18.0677 23.4609 18.0508 25.7414 18.0508 26.1898C18.0508 26.5453 18.3105 26.9773 19.0274 26.8516C24.6726 25.0359 28.5 19.8461 28.5 13.7812C28.5 6.19609 22.1492 0.4375 14.3194 0.4375ZM5.9871 19.2992C5.91371 19.3539 5.93064 19.4797 6.02661 19.5836C6.11694 19.6711 6.24677 19.7094 6.32016 19.6383C6.39355 19.5836 6.37661 19.4578 6.28064 19.3539C6.19032 19.2664 6.06048 19.2281 5.9871 19.2992ZM5.37742 18.8562C5.3379 18.9273 5.39435 19.0148 5.50726 19.0695C5.59758 19.1242 5.71048 19.1078 5.75 19.0312C5.78952 18.9602 5.73306 18.8727 5.62016 18.818C5.50726 18.7852 5.41694 18.8016 5.37742 18.8562ZM7.20645 20.8031C7.11613 20.8742 7.15 21.0383 7.27984 21.1422C7.40968 21.268 7.57339 21.2844 7.64677 21.1969C7.72016 21.1258 7.68629 20.9617 7.57339 20.8578C7.44919 20.732 7.27984 20.7156 7.20645 20.8031ZM6.5629 19.9992C6.47258 20.0539 6.47258 20.1961 6.5629 20.3219C6.65323 20.4477 6.80564 20.5023 6.87903 20.4477C6.96935 20.3766 6.96935 20.2344 6.87903 20.1086C6.8 19.9828 6.65323 19.9281 6.5629 19.9992Z" fill="#6361F1"/>
</g>
<defs>
<clipPath id="clip0_1_55">
<rect width="28" height="28" fill="white" transform="translate(0.5)"/>
</clipPath>
</defs>
</svg>
