<svg width="26" height="28" viewBox="0 0 26 28" fill="none" xmlns="http://www.w3.org/2000/svg">
<g clip-path="url(#clip0_1_53)">
<path d="M23.7143 1.75H2.28013C1.29799 1.75 0.5 2.54297 0.5 3.51641V24.4836C0.5 25.457 1.29799 26.25 2.28013 26.25H23.7143C24.6964 26.25 25.5 25.457 25.5 24.4836V3.51641C25.5 2.54297 24.6964 1.75 23.7143 1.75ZM8.0558 22.75H4.35045V11.0578H8.06138V22.75H8.0558ZM6.20312 9.46094C5.01451 9.46094 4.05469 8.51484 4.05469 7.35547C4.05469 6.19609 5.01451 5.25 6.20312 5.25C7.38616 5.25 8.35156 6.19609 8.35156 7.35547C8.35156 8.52031 7.39174 9.46094 6.20312 9.46094ZM21.9453 22.75H18.24V17.0625C18.24 15.7063 18.2121 13.9617 16.3147 13.9617C14.3839 13.9617 14.0882 15.4383 14.0882 16.9641V22.75H10.3828V11.0578H13.9375V12.6547H13.9877C14.4844 11.7359 15.6953 10.768 17.4978 10.768C21.2478 10.768 21.9453 13.1906 21.9453 16.3406V22.75Z" fill="#6361F1"/>
</g>
<defs>
<clipPath id="clip0_1_53">
<rect width="25" height="28" fill="white" transform="translate(0.5)"/>
</clipPath>
</defs>
</svg>
